<svg xmlns="http://www.w3.org/2000/svg" width="394" height="114.681" viewBox="0 0 394 114.681">
  <g id="Group_2" data-name="Group 2" transform="translate(-94 -100)">
    <text id="tokarta" transform="translate(94 100)" font-size="68" font-family="LucyRounded-Bold, LucyRounded" font-weight="700"><tspan x="85.753" y="62">tokarta</tspan></text>
    <g id="lonemonkey2" transform="translate(102.403 93.986)">
      <g id="Group_1" data-name="Group 1" transform="translate(5 17.014)">
        <path id="Path_1" data-name="Path 1" d="M52.786,25.738q-1.272-.53-2.572-1.039a6.391,6.391,0,0,0-2.325-.48,2.462,2.462,0,0,0-.82.113,3.6,3.6,0,0,0,.092-1.357,4.751,4.751,0,0,0-.424-1.533,4.229,4.229,0,0,0-.919-1.293q-.438-.4-.9-.756-.417-.339-.834-.671a7.7,7.7,0,0,0-1.717-1,11.2,11.2,0,0,0-2.727-.657,8.4,8.4,0,0,0-4.444.735,8.722,8.722,0,0,0-2.056,1.364,10.887,10.887,0,0,0-1.943,2.176,3.49,3.49,0,0,0-.36.714q-.141.424-.269.9a1.572,1.572,0,0,0-.064.565q.6.459,1.173.954a1.584,1.584,0,0,1,.438.721,2.08,2.08,0,0,1,.049,1.187q-.085.346-.148.692l.134-.283-.184.749.049-.466a4.843,4.843,0,0,0-.452,3.25,2.686,2.686,0,0,0,1.3,1.788l-.3.82q.777.565,1.59,1.053a3.425,3.425,0,0,0,.544.261,14.658,14.658,0,0,1,1.985-.163.833.833,0,0,1,.53.191,1.606,1.606,0,0,1,.353.4q.212,4.028.459,8.069.049.9.155,1.823a34.463,34.463,0,0,1,.24,3.8,17.606,17.606,0,0,1-.127,2.141,1.7,1.7,0,0,1-.184.622q-1,1.463-2.014,2.9a1.957,1.957,0,0,1-.269.318,8.68,8.68,0,0,0-.911,1.138q-.445.049-.862.113a7.3,7.3,0,0,0-3.37,1.887q-.594.6-1.229,1.173-.516.473-1.067.9a20.981,20.981,0,0,0-1.872,1.738q-.459.488-.911.989-.367.4-.714.806-.6.728-1.187,1.456-.332.382-.643.77-.353.41-.685.82l-.692.89q-1.788,2.24-3.441,4.593-.367.523-.728,1.025-.791,1.109-1.547,2.2a.115.115,0,0,0-.035.042q-.551.113-1.081.261-1.2.3-2.367.671-1.427.431-2.833.919l-2.176.092-.254-.014a1.367,1.367,0,0,0-.127.5.965.965,0,0,0,.191.4,1.131,1.131,0,0,1,.191.332,10.443,10.443,0,0,1-1.237.947Q5,79.877,5,80.675a1.847,1.847,0,0,0,.035.445q.014.127.784-.092a1.651,1.651,0,0,1-.057.495,3.71,3.71,0,0,1-.24.374q-.177.226.24.367a.608.608,0,0,0,.671-.163v.805a.481.481,0,0,0,.141.4q.12.092.537-.085a4.47,4.47,0,0,0,1.01-.742,8.82,8.82,0,0,0,.989-1.032q1.441-1.9,4.967-1.9a7.938,7.938,0,0,1,1.166.163l2.261-.53,2.9-1.463q.685-.82,1.364-1.583.65-.721,1.335-1.406,1.081-1.06,2.19-2.084.24-.24.495-.459.657-.6,1.335-1.166l-.049-.078.664-.438a4.483,4.483,0,0,0,.141,1.413l.1.3v.014a.6.6,0,0,0,.064.41.079.079,0,0,0,.007.035,2.749,2.749,0,0,0,.3.318,2,2,0,0,0,1.237-.353,1.631,1.631,0,0,0,.261-.226l.028-.148.339-.353q.657-.629,1.335-1.229.947-.855,1.83-1.766a13.478,13.478,0,0,0,.968-1.081q.212-.261.417-.551a8.515,8.515,0,0,0,1.427.2q1.788.106,3.6.035.367-.035.749-.085.671-.177,1.371-.332a10.582,10.582,0,0,1,2.862-.367,2.866,2.866,0,0,1,2.671.989,4.765,4.765,0,0,1,1.293,2.9,3.925,3.925,0,0,1-.085,1.046,12.105,12.105,0,0,0-.254,2.1q-.346,1.265-.622,2.544-.4,1.795-.89,3.533-.509,1.752-1.088,3.448-.657,1.844-1.307,3.653-.735,1.964-1.491,3.943-.177.452-.339.919-.671,1.809-1.448,3.519-.911,2.07-1.795,4.134-.869,1.993-1.766,3.95-.968,2.084-1.971,4.183-.919,1.879-1.95,3.6-.41.678-.848,1.335-.268.389-.544.77-.184.276-.36.523-.276.374-.579.756-.276.346-.579.678a14.007,14.007,0,0,1-1.795,1.71,13.23,13.23,0,0,1-1.7,1.138.324.324,0,0,1-.1.049.167.167,0,0,0-.078.035.209.209,0,0,0-.071.057.051.051,0,0,0-.049.028q-.254.113-.509.219a.041.041,0,0,1-.028.014q-.65.24-1.314.417-.763.184-1.512.332-.855-.021-1.7-.035-1.081-.1-2.141-.261-.523-.106-1.053-.163a.371.371,0,0,0-.4.057.281.281,0,0,0,.071.12,3.973,3.973,0,0,0,.678.707,4.641,4.641,0,0,0,2.2.933,12.645,12.645,0,0,0,2.353.064h.113q.007-.021.035,0,.382-.035.763-.092a9.946,9.946,0,0,0,2.353-.65,1.717,1.717,0,0,1,.177-.064.012.012,0,0,1,.014-.014q.219-.1.537-.219a.1.1,0,0,1,.085-.035.115.115,0,0,1,.071-.049l.092-.028a1.219,1.219,0,0,1,.177-.085q.615-.261.933-.438.3-.177,1.081-.664.374-.254.714-.523.2-.276.431-.565.466-.572,1.392-1.491.141-.141.269-.247a7.161,7.161,0,0,1,.445-.586q.3-.367.9-1.081a22.749,22.749,0,0,0,1.738-2.65q1.088-1.9,2.19-3.893.791-1.406,1.477-2.8l3-5.54a32.335,32.335,0,0,0,1.936-3.363q.714-1.413,1.364-2.812l.438-.975q.261-.6.509-1.187l5.349-12.81q.382-.763.763-1.512.728-1.449,1.5-2.862.636-1.152,1.286-2.3.671-1.166,1.448-2.289.9-1.265,1.894-2.452A19.813,19.813,0,0,0,60.608,64.3a24.554,24.554,0,0,0,1.682-3.335,15.738,15.738,0,0,0,1-3.526,1.784,1.784,0,0,0,.085-.2q.6-1.512,1.067-3.031.495-1.562.834-3.116.318-1.42.53-2.946a24.126,24.126,0,0,0,.219-3.724,22.522,22.522,0,0,0-.318-3.491,21.279,21.279,0,0,0-.855-3.229,16.824,16.824,0,0,0-1.406-2.982.858.858,0,0,0-.071-.127,17.235,17.235,0,0,0-1.88-2.586,24.635,24.635,0,0,0-2.72-2.621,23.54,23.54,0,0,0-2.8-2.028,27.749,27.749,0,0,0-3.187-1.625M46.349,53.2a2.093,2.093,0,0,1-1.71,1.145,8.785,8.785,0,0,0-2.607.947l4.473-7.3a12.014,12.014,0,0,1,.233,2.763,12.547,12.547,0,0,1-.12,1.477A5.411,5.411,0,0,1,46.349,53.2Z" transform="translate(-5 -17.014)"/>
      </g>
    </g>
  </g>
</svg>
